<svg id="Layer_1" height="512" viewBox="0 0 36 36" width="512" xmlns="http://www.w3.org/2000/svg" data-name="Layer 1"><path d="m24.4 2h-12.8a9.61 9.61 0 0 0 -9.6 9.6v8.53a9.61 9.61 0 0 0 9.6 9.6h2.13a5.34 5.34 0 0 0 5.33-5.33v-.11a5.34 5.34 0 0 0 4.27-5.23v-3.2h1.07v-2.13h-2.13v-3.2h-2.14v3.2h-4.26v-3.2h-2.14v3.2h-2.13v2.13h1.07v3.2a5.34 5.34 0 0 0 4.27 5.23v.11a3.2 3.2 0 0 1 -3.2 3.2h-2.14a7.48 7.48 0 0 1 -7.47-7.47v-8.53a7.48 7.48 0 0 1 7.47-7.47h12.8a7.48 7.48 0 0 1 7.47 7.47v12.8a7.48 7.48 0 0 1 -7.47 7.47h-6.4v2.13h6.4a9.61 9.61 0 0 0 9.6-9.6v-12.8a9.61 9.61 0 0 0 -9.6-9.6zm-9.6 17.07v-3.2h6.4v3.2a3.2 3.2 0 0 1 -6.4 0z"/></svg>