<svg id="Layer_1" height="512" viewBox="0 0 36 36" width="512" xmlns="http://www.w3.org/2000/svg" data-name="Layer 1"><path d="m22.92 32.93h-.66a3.2 3.2 0 0 1 -3.2-3.2v-19.2a7.73 7.73 0 0 1 8-7.47 8 8 0 0 1 6.8 3.59 1.06 1.06 0 0 1 .17.58v6.59a1.06 1.06 0 0 1 -.17.58 8 8 0 0 1 -6.86 3.6 8.34 8.34 0 0 1 -3.38-.71l.86-2a6.22 6.22 0 0 0 2.52.53 6 6 0 0 0 4.84-2.37v-5.88a6 6 0 0 0 -4.84-2.37 5.6 5.6 0 0 0 -5.83 5.33v19.2a1.07 1.07 0 0 0 1.07 1.07h.66a1.07 1.07 0 0 0 1.1-1.07v-9.68h2.13v9.68a3.2 3.2 0 0 1 -3.21 3.2z"/><path d="m13.73 32.93h-.66a3.2 3.2 0 0 1 -3.2-3.2v-9.68h2.13v9.68a1.07 1.07 0 0 0 1.07 1.07h.66a1.07 1.07 0 0 0 1.07-1.07v-19.2a5.6 5.6 0 0 0 -5.8-5.33 6 6 0 0 0 -4.87 2.37v5.93a6 6 0 0 0 4.87 2.37 6.22 6.22 0 0 0 2.52-.53l.86 2a8.34 8.34 0 0 1 -3.38.66 8 8 0 0 1 -6.8-3.59 1.06 1.06 0 0 1 -.2-.58v-6.59a1.06 1.06 0 0 1 .17-.58 8 8 0 0 1 6.83-3.59 7.73 7.73 0 0 1 8 7.47v19.2a3.2 3.2 0 0 1 -3.27 3.19z"/><g fill-rule="evenodd"><path d="m9.47 11.6a1.07 1.07 0 1 1 -1.07 1.07 1.07 1.07 0 0 1 1.07-1.07z"/><path d="m26.53 11.6a1.07 1.07 0 1 1 -1.07 1.07 1.07 1.07 0 0 1 1.07-1.07z"/></g></svg>