<svg id="Layer_1" height="512" viewBox="0 0 36 36" width="512" xmlns="http://www.w3.org/2000/svg" data-name="Layer 1"><path d="m20.13 2h-4.26a14 14 0 0 0 -13.87 13.87v12.8a5.34 5.34 0 0 0 5.33 5.33h2.14a3.2 3.2 0 0 0 3.2-3.2v-8.53a3.2 3.2 0 0 0 -3.2-3.2h-2.14a5.27 5.27 0 0 0 -3.2 1.09v-4.29a11.84 11.84 0 0 1 11.74-11.74h4.27a11.75 11.75 0 0 1 11.73 11.74v4.29a5.27 5.27 0 0 0 -3.2-1.09h-2.14a3.2 3.2 0 0 0 -3.2 3.2v8.53a3.2 3.2 0 0 0 3.2 3.2h2.13a5.33 5.33 0 0 0 5.34-5.33v-12.8a13.88 13.88 0 0 0 -13.87-13.87zm-15.06 20.14a3.17 3.17 0 0 1 2.26-.94h2.14a1.07 1.07 0 0 1 1.07 1.07v8.53a1.07 1.07 0 0 1 -1.07 1.07h-2.14a3.2 3.2 0 0 1 -3.2-3.2v-4.27a3.18 3.18 0 0 1 .94-2.26zm26.79 6.53a3.2 3.2 0 0 1 -3.2 3.2h-2.13a1.07 1.07 0 0 1 -1.07-1.07v-8.53a1.07 1.07 0 0 1 1.07-1.07h2.13a3.2 3.2 0 0 1 3.2 3.2z"/></svg>