<svg id="Layer_1" height="512" viewBox="0 0 36 36" width="512" xmlns="http://www.w3.org/2000/svg" data-name="Layer 1"><path d="m16.9 24.07h2.2a5.52 5.52 0 0 0 5.52-5.52v-11a5.52 5.52 0 0 0 -5.52-5.55h-2.2a5.52 5.52 0 0 0 -5.52 5.52v11a5.52 5.52 0 0 0 5.52 5.52zm-3.31-16.55a3.31 3.31 0 0 1 3.31-3.31h2.2a3.31 3.31 0 0 1 3.31 3.31v11a3.31 3.31 0 0 1 -3.31 3.31h-2.2a3.31 3.31 0 0 1 -3.31-3.31z"/><path d="m27.93 11.93v7.72a7.72 7.72 0 0 1 -7.72 7.72h-4.42a7.72 7.72 0 0 1 -7.72-7.72v-7.72h-2.21v7.72a9.93 9.93 0 0 0 9.93 9.93h1.1v4.42h2.21v-4.41h1.1a9.93 9.93 0 0 0 9.93-9.93v-7.73z"/></svg>