<svg id="Layer_1" height="512" viewBox="0 0 36 36" width="512" xmlns="http://www.w3.org/2000/svg" data-name="Layer 1"><path d="m25.48 6.38v-1.17a3.21 3.21 0 0 0 -3.21-3.21h-8.54a3.21 3.21 0 0 0 -3.21 3.21v1.17a5.35 5.35 0 0 0 -4.27 5.24v12.76a5.35 5.35 0 0 0 4.27 5.24v1.18a3.21 3.21 0 0 0 3.21 3.2h8.55a3.21 3.21 0 0 0 3.21-3.21v-1.17a5.35 5.35 0 0 0 4.27-5.24v-12.76a5.35 5.35 0 0 0 -4.28-5.24zm-11.75-2.24h8.55a1.07 1.07 0 0 1 1.07 1.07v1.06h-10.69v-1.06a1.07 1.07 0 0 1 1.07-1.07zm8.55 27.73h-8.55a1.07 1.07 0 0 1 -1.07-1.07v-1.07h10.68v1.07a1.07 1.07 0 0 1 -1.07 1.06zm5.34-7.48a3.21 3.21 0 0 1 -3.21 3.21h-12.82a3.21 3.21 0 0 1 -3.21-3.21v-12.77a3.21 3.21 0 0 1 3.21-3.21h12.82a3.21 3.21 0 0 1 3.21 3.21z" fill-rule="evenodd"/><circle cx="18" cy="24.38" r="1.07"/></svg>