<svg id="Layer_1" height="512" viewBox="0 0 32 32" width="512" xmlns="http://www.w3.org/2000/svg" data-name="Layer 1"><path d="m23.47 32h-14.94a5.33 5.33 0 0 1 -5.33-5.33v-21.34a5.33 5.33 0 0 1 5.33-5.33h14.94a5.33 5.33 0 0 1 5.33 5.33v21.34a5.33 5.33 0 0 1 -5.33 5.33zm-14.94-29.87a3.2 3.2 0 0 0 -3.2 3.2v21.34a3.2 3.2 0 0 0 3.2 3.2h14.94a3.2 3.2 0 0 0 3.2-3.2v-21.34a3.2 3.2 0 0 0 -3.2-3.2z"/><path d="m16 27.73a6.4 6.4 0 1 1 6.4-6.4 6.41 6.41 0 0 1 -6.4 6.4zm0-10.67a4.27 4.27 0 1 0 4.27 4.27 4.27 4.27 0 0 0 -4.27-4.26z"/><path d="m16 12.8a4.27 4.27 0 1 1 4.27-4.27 4.27 4.27 0 0 1 -4.27 4.27zm0-6.4a2.13 2.13 0 1 0 2.13 2.13 2.14 2.14 0 0 0 -2.13-2.13z"/></svg>